<?xml version="1.0" encoding="UTF-8" standalone="no"?>
<!DOCTYPE svg PUBLIC "-//W3C//DTD SVG 1.1//EN" "http://www.w3.org/Graphics/SVG/1.1/DTD/svg11.dtd">
<svg width="100%" height="100%" viewBox="0 0 512 512" version="1.1" xmlns="http://www.w3.org/2000/svg" xmlns:xlink="http://www.w3.org/1999/xlink" xml:space="preserve" xmlns:serif="http://www.serif.com/" style="fill-rule:evenodd;clip-rule:evenodd;stroke-linejoin:round;stroke-miterlimit:2;">
    <g transform="matrix(3.07484,0,0,3.02029,-124.726,-69.1106)">
        <rect x="40.563" y="22.882" width="166.513" height="169.52" style="fill:url(#_Linear1);"/>
    </g>
    <g transform="matrix(1,0,0,1,17.1983,70.993)">
        <path d="M67.307,53.163C67.481,52.929 71.181,41.425 79.182,32.708C87.564,23.577 100.277,17.253 101.065,18.757C102.058,20.653 92.339,22.07 84.221,34.388C80.855,39.495 78.744,45.952 78.529,51.653C78.529,51.653 79.276,54.732 79.789,54.873C80.302,55.013 81.352,54.855 81.655,54.312C81.958,53.77 78.202,46.52 92.34,35.648C104.673,26.165 123.229,23.027 123.602,23.622C123.809,23.952 114.307,29.045 106.991,34.482C101.106,38.856 97.028,43.745 97.566,44.328C98.773,45.634 150.944,29.128 151.668,30.026C152.392,30.924 134.661,37.165 133.261,48.433C132.461,54.873 142.197,54.429 156.008,55.362C169.82,56.296 182.266,57.206 182.301,57.905C182.336,58.605 165.55,61.592 162.797,68.03C160.044,74.469 162.284,80.115 167.043,81.608C171.802,83.101 195.272,85.924 195.482,85.318C195.692,84.712 187.316,79.439 187.084,78.388C186.851,77.338 197.582,71.53 202.832,69.36C208.081,67.19 215.663,64.741 215.78,63.691C215.897,62.641 213.051,59.771 208.991,56.902C204.932,54.033 200.102,52.773 200.242,51.443C200.382,50.113 219.722,46.427 244.545,42.764C255.043,41.084 266.031,38.075 280.59,36.325C295.148,34.576 311.455,32.406 323.703,33.876C335.951,35.346 353.168,38.635 367.025,45.844C380.882,53.053 398.941,67.821 401.461,70.41C403.98,72.999 406.99,75.17 406.149,76.43C405.309,77.69 380.953,75.73 368.635,87.208C356.317,98.686 353.167,102.955 352.257,111.214C351.348,119.473 352.188,125.142 354.007,129.411C355.827,133.681 359.187,139.28 358.347,140.47C357.507,141.66 337.281,136.34 332.242,145.44C327.203,154.538 330.211,163.357 331.681,167.276C333.151,171.196 336.651,174.73 336.021,175.675C335.391,176.619 323.494,173.668 313.833,179.314C304.175,184.96 298.95,189.719 298.855,190.793C298.761,191.867 306.459,193.266 310.379,193.778C314.299,194.29 319.852,194.851 322.558,194.851C325.264,194.851 331.516,192.938 332.077,193.964C332.639,194.989 322.931,200.636 321.812,207.962C320.692,215.288 320.413,218.366 322.418,222.286C324.423,226.206 326.804,232.132 332.869,231.712C338.935,231.292 344.254,230.124 346.4,229.892C348.546,229.66 351.066,228.165 352,228.679C352.934,229.193 352.652,229.284 352.187,229.939C351.72,230.591 343.694,234.605 341.502,237.873C339.309,241.139 336.183,247.717 336.648,250.656C337.115,253.595 340.334,256.676 345.56,254.109C350.786,251.542 351.812,249.584 350.505,256.442C349.2,263.3 351.859,266.894 358.251,265.447C364.645,264.002 372.063,262.088 377.616,252.289C383.169,242.492 384.288,234.793 384.894,225.928C385.5,217.063 382.234,206.098 377.521,195.32C372.809,184.542 370.429,167.418 370.243,162.285C370.055,157.152 370.01,142.035 374.348,132.75C378.687,123.464 385.78,112.732 392.265,107.46C398.75,102.188 411.675,95.282 412.748,93.929C413.82,92.576 417.461,88.283 415.873,83.991C414.287,79.698 412.048,79.512 410.602,77.879C409.157,76.246 408.622,75.275 408.596,74.52C408.571,73.764 414.428,70.087 419.42,68.594C424.414,67.101 439.391,65.841 446.203,67.568C453.015,69.294 465.941,70.321 468.553,72.654C471.166,74.987 472.987,81.286 468.553,89.078C464.121,96.87 460.809,106.108 459.455,108.488C458.101,110.868 453.017,119.92 451.242,122.066C449.469,124.212 445.783,127.992 445.131,128.131C444.479,128.272 442.098,129.065 441.631,126.965C441.164,124.865 438.412,115.02 436.313,111.707C434.211,108.395 429.407,104.288 427.633,103.682C425.859,103.076 416.388,109.655 414.754,112.08C413.121,114.507 406.683,128.364 405.75,131.257C404.816,134.151 402.111,147.868 402.856,153.327C403.602,158.786 407.662,171.665 409.668,176.704C411.675,181.743 419.793,197.233 421.054,200.64C422.315,204.047 428.006,222.431 428.053,224.484C428.1,226.538 430.106,244.174 428.658,250.52C427.21,256.866 423.246,270.538 421.939,273.15C420.633,275.763 411.162,291.394 408.548,294.52C405.934,297.646 396.977,307.12 390.069,310.85C383.165,314.582 373.319,318.784 369.073,320.37C364.827,321.956 336.878,323.87 329.364,323.544C321.852,323.216 300.717,321.956 294.37,320.837C288.023,319.718 282.472,319.439 282.099,319.95C281.725,320.464 281.867,327.743 277.013,330.169C272.159,332.595 263.249,334.788 259.049,336.28C254.85,337.774 242.392,339.592 238.845,340.294C235.299,340.993 219.574,344.261 217.382,345.054C215.19,345.847 205.495,347.068 205.017,347.013C204.538,346.96 202.311,349.3 200.398,349.999C198.485,350.698 194.146,350.466 193.679,349.438C193.213,348.413 192.641,348.413 192.431,348.448C192.221,348.483 191.303,349.802 190.996,349.778C190.69,349.751 190.288,349.042 189.876,349.007C189.465,348.972 187.147,351.142 186.691,351.351C186.236,351.562 186.052,351.474 185.781,351.351C185.51,351.23 185.3,350.033 185.256,349.847C185.212,349.663 185.886,347.292 186.306,346.685C186.726,346.08 185.373,345.472 185.979,344.82C186.585,344.168 185.699,338.615 186.212,334.601C186.725,330.587 191.158,327.324 193.071,326.761C194.984,326.202 199.09,325.175 199.557,324.943C200.023,324.711 204.036,322.75 204.829,322.05C205.622,321.349 211.221,319.39 211.921,319.155C212.621,318.923 215.794,317.71 216.494,317.428C217.194,317.149 218.64,316.776 218.407,315.141C218.174,313.508 217.033,311.264 216.634,311.037C216.235,310.808 203.616,308.33 198.484,306.791C193.351,305.25 187.472,302.684 186.352,301.984C185.232,301.285 183.973,300.211 183.413,300.584C182.853,300.957 183.6,302.918 182.9,303.805C182.2,304.692 173.895,312.623 171.002,315.842C168.109,319.063 164.796,324.895 161.95,328.488C159.104,332.08 157.564,336.326 152.898,337.541C148.232,338.754 138.526,337.773 133.067,337.82C127.608,337.867 123.175,337.166 119.209,337.867C115.243,338.566 109.457,339.779 108.617,339.638C107.777,339.497 107.072,339.177 106.751,339.218C106.43,339.259 105.59,339.784 105.223,339.888C104.856,339.993 103.316,340.29 103.018,340.134C102.721,339.976 101.496,340.152 101.216,340.29C100.936,340.431 99.93,340.774 99.764,340.694C99.597,340.612 99.023,340.034 98.493,340.034C97.963,340.034 96.183,340.384 95.857,340.313C95.53,340.245 93.407,340.36 92.031,340.36C90.655,340.36 89.231,340.43 88.531,340.85C87.831,341.27 86.572,341.528 86.011,341.481C85.45,341.432 84.844,341.948 84.681,341.993C84.517,342.04 84.214,341.432 84.191,341.153C84.168,340.874 85.125,339.194 85.614,338.26C86.103,337.326 85.87,337.235 86.944,336.369C88.018,335.506 88.18,335.39 88.671,334.994C89.161,334.596 89.557,334.34 89.511,334.246C89.464,334.154 89.196,334.197 88.881,334.34C88.566,334.485 86.478,335.297 85.918,335.647C85.358,335.999 84.238,336.836 83.725,337.303C83.212,337.77 82.488,338.448 82.325,338.26C82.161,338.072 81.876,336.819 81.905,336.533C81.934,336.246 83.235,332.334 83.468,331.935C83.701,331.539 84.005,330.863 84.495,330.419C84.985,329.976 84.355,329.718 83.958,330.046C83.562,330.372 82.442,330.771 82.349,331.048C82.255,331.329 81.952,330.349 82.162,329.929C82.372,329.509 82.885,328.878 83.189,328.437C83.492,327.994 84.192,327.339 84.519,327.13C84.846,326.919 83.679,326.71 83.236,326.849C82.793,326.99 82.046,326.781 82.326,326.382C82.606,325.987 84.752,323.653 85.359,323.349C85.966,323.046 88.952,321.439 89.278,321.343C89.604,321.249 90.351,321.204 90.608,321.111C90.864,321.017 93.594,319.152 94.947,318.8C96.301,318.45 98.377,318.497 98.913,318.683C99.45,318.872 101.036,318.964 101.479,318.685C101.922,318.406 102.809,316.794 103.369,316.656C103.929,316.515 108.688,315.396 110.298,315.094C111.907,314.789 117.25,313.576 118.533,313.532C119.816,313.485 125.112,313.6 125.602,313.671C126.092,313.741 128.355,313.814 128.518,313.788C128.682,313.765 129.685,313.556 129.801,313.438C129.918,313.321 125.882,312.692 121.986,312.364C118.09,312.038 113.097,311.456 109.668,311.315C106.239,311.174 100.406,311.456 98.423,312.294C96.44,313.134 94.083,313.974 93.57,313.927C93.056,313.88 92.287,314.394 91.727,314.511C91.167,314.628 89.814,314.605 89.161,314.443C88.508,314.279 87.481,313.718 87.038,313.742C86.595,313.766 84.542,313.719 83.655,314.443C82.769,315.166 82.092,315.351 81.719,315.539C81.345,315.727 80.36,315.674 80.325,315.48C80.29,315.289 80.605,314.08 80.832,313.695C81.059,313.31 82.092,310.914 82.319,310.617C82.547,310.318 82.861,309.287 83.019,309.094C83.177,308.903 83.422,308.01 83.614,307.66C83.806,307.308 84.101,306.687 84.034,306.539C83.967,306.391 82.512,306.941 82.372,306.906C82.232,306.871 81.409,307.572 81.112,307.711C80.815,307.852 79.951,307.797 79.876,307.631C79.801,307.465 80.587,305.807 80.762,305.578C80.937,305.348 82.116,304.564 82.255,304.41C82.395,304.256 83.317,303.215 83.375,303.012C83.433,302.807 83.585,302.217 83.468,302.078C83.351,301.937 81.759,301.506 81.695,301.238C81.631,300.968 84.261,297.506 86.594,296.199C88.927,294.891 89.673,294.518 89.906,294.145C90.139,293.771 90.139,292.464 91.119,291.953C92.099,291.439 93.779,291.018 94.292,290.599C94.805,290.178 94.683,289.818 95.272,289.48C95.861,289.141 106.47,288.592 113.049,289.2C119.628,289.806 124.247,289.573 127.886,286.307C131.526,283.039 134.605,274.782 132.505,269.743C130.405,264.704 133.625,267.177 128.353,263.817C123.08,260.458 118.694,250.939 118.414,248.7C118.134,246.46 117.061,248.841 114.262,245.806C111.463,242.771 105.397,223.69 104.557,220.19C103.717,216.691 104.65,214.264 105.023,213.706C105.397,213.144 103.723,211.391 103.343,209.413C102.964,207.434 103.576,194.481 104.556,190.655C105.535,186.829 110.342,175.864 111.415,174.417C112.488,172.971 113.074,172.787 113.235,172.505C113.395,172.222 112.815,169.705 113.608,163.779C114.401,157.853 118.274,151.18 118.787,150.294C119.3,149.408 119.44,148.988 119.487,148.568C119.634,147.245 117.14,145.236 116.781,143.622C116.221,141.102 116.361,140.402 116.408,139.796C116.454,139.19 115.755,137.755 114.775,137.276C113.795,136.797 110.389,140.029 104.183,141.709C97.977,143.389 93.142,142.444 91.771,142.456C90.401,142.468 72.828,150.294 65.315,155.101C57.803,159.907 51.597,163.919 50.477,164.48C49.357,165.04 45.811,170.826 44.738,171.292C43.665,171.759 43.105,172.412 43.338,173.019C43.571,173.625 43.898,174.885 44.178,175.399C44.458,175.912 45.112,176.256 44.878,176.798C44.645,177.341 43.758,177.218 43.524,177.125C43.291,177.031 42.218,176.052 41.891,175.958C41.564,175.865 39.931,175.258 39.651,174.792C39.371,174.325 38.904,174.465 38.251,173.812C37.598,173.159 31.719,174.792 29.666,174.326C27.613,173.859 24.02,172.599 23.74,172.04C23.46,171.479 22.76,171.153 22.433,171.34C22.106,171.527 22.153,173.253 22.62,174.233C23.087,175.213 24.234,176.594 24.113,176.94C23.992,177.285 23.211,177.05 22.853,176.846C22.495,176.642 16.507,170.127 16.181,168.028C15.855,165.929 15.856,165.621 15.668,165.508C15.48,165.395 12.402,165.414 9.275,158.976C6.149,152.537 6.056,150.017 6.802,146.33C7.549,142.644 5.698,140.404 6.638,137.867C7.968,134.28 13.561,134.024 17.574,132.11C21.587,130.198 30.574,123.484 35.217,111.008C39.588,99.264 39.705,95.551 39.621,94.194C39.568,93.354 38.355,89.555 38.81,86.419C39.078,84.57 47.197,77.607 50.148,72.935C52.931,68.531 60.133,62.343 61.207,61.644C62.28,60.944 63.056,60.412 63.307,60.197C63.593,59.953 63.494,57.585 63.82,56.558C64.147,55.531 65.033,54.504 65.453,54.225C65.836,53.946 66.904,53.65 67.26,53.171L67.307,53.163ZM209.477,132.98C209.617,131.884 209.255,122.435 208.672,121.992C208.089,121.549 204.507,126.436 203.702,127.837C202.897,129.236 200.413,133.156 200.307,134.731C200.203,136.306 199.922,138.895 201.322,140.295C202.722,141.694 206.256,143.725 206.746,143.829C207.236,143.934 207.551,143.269 207.796,142.43C208.041,141.591 208.706,137.811 208.846,136.691C208.976,135.581 209.326,134.091 209.466,132.991L209.477,132.98ZM196.917,87.837C196.089,87.137 189.148,91.057 187.644,94.275C186.139,97.495 183.584,101.379 184.775,104.984C185.964,108.588 189.674,110.408 192.508,110.478C195.343,110.547 199.927,112.542 202.167,112.823C204.407,113.102 205.596,113.802 206.051,113.208C206.506,112.614 204.756,102.01 203.706,100.015C202.656,98.021 201.291,94.707 200.883,94.101C200.473,93.5 197.743,88.541 196.923,87.842L196.917,87.837Z" style="fill:white;"/>
        <clipPath id="_clip2">
            <path d="M67.307,53.163C67.481,52.929 71.181,41.425 79.182,32.708C87.564,23.577 100.277,17.253 101.065,18.757C102.058,20.653 92.339,22.07 84.221,34.388C80.855,39.495 78.744,45.952 78.529,51.653C78.529,51.653 79.276,54.732 79.789,54.873C80.302,55.013 81.352,54.855 81.655,54.312C81.958,53.77 78.202,46.52 92.34,35.648C104.673,26.165 123.229,23.027 123.602,23.622C123.809,23.952 114.307,29.045 106.991,34.482C101.106,38.856 97.028,43.745 97.566,44.328C98.773,45.634 150.944,29.128 151.668,30.026C152.392,30.924 134.661,37.165 133.261,48.433C132.461,54.873 142.197,54.429 156.008,55.362C169.82,56.296 182.266,57.206 182.301,57.905C182.336,58.605 165.55,61.592 162.797,68.03C160.044,74.469 162.284,80.115 167.043,81.608C171.802,83.101 195.272,85.924 195.482,85.318C195.692,84.712 187.316,79.439 187.084,78.388C186.851,77.338 197.582,71.53 202.832,69.36C208.081,67.19 215.663,64.741 215.78,63.691C215.897,62.641 213.051,59.771 208.991,56.902C204.932,54.033 200.102,52.773 200.242,51.443C200.382,50.113 219.722,46.427 244.545,42.764C255.043,41.084 266.031,38.075 280.59,36.325C295.148,34.576 311.455,32.406 323.703,33.876C335.951,35.346 353.168,38.635 367.025,45.844C380.882,53.053 398.941,67.821 401.461,70.41C403.98,72.999 406.99,75.17 406.149,76.43C405.309,77.69 380.953,75.73 368.635,87.208C356.317,98.686 353.167,102.955 352.257,111.214C351.348,119.473 352.188,125.142 354.007,129.411C355.827,133.681 359.187,139.28 358.347,140.47C357.507,141.66 337.281,136.34 332.242,145.44C327.203,154.538 330.211,163.357 331.681,167.276C333.151,171.196 336.651,174.73 336.021,175.675C335.391,176.619 323.494,173.668 313.833,179.314C304.175,184.96 298.95,189.719 298.855,190.793C298.761,191.867 306.459,193.266 310.379,193.778C314.299,194.29 319.852,194.851 322.558,194.851C325.264,194.851 331.516,192.938 332.077,193.964C332.639,194.989 322.931,200.636 321.812,207.962C320.692,215.288 320.413,218.366 322.418,222.286C324.423,226.206 326.804,232.132 332.869,231.712C338.935,231.292 344.254,230.124 346.4,229.892C348.546,229.66 351.066,228.165 352,228.679C352.934,229.193 352.652,229.284 352.187,229.939C351.72,230.591 343.694,234.605 341.502,237.873C339.309,241.139 336.183,247.717 336.648,250.656C337.115,253.595 340.334,256.676 345.56,254.109C350.786,251.542 351.812,249.584 350.505,256.442C349.2,263.3 351.859,266.894 358.251,265.447C364.645,264.002 372.063,262.088 377.616,252.289C383.169,242.492 384.288,234.793 384.894,225.928C385.5,217.063 382.234,206.098 377.521,195.32C372.809,184.542 370.429,167.418 370.243,162.285C370.055,157.152 370.01,142.035 374.348,132.75C378.687,123.464 385.78,112.732 392.265,107.46C398.75,102.188 411.675,95.282 412.748,93.929C413.82,92.576 417.461,88.283 415.873,83.991C414.287,79.698 412.048,79.512 410.602,77.879C409.157,76.246 408.622,75.275 408.596,74.52C408.571,73.764 414.428,70.087 419.42,68.594C424.414,67.101 439.391,65.841 446.203,67.568C453.015,69.294 465.941,70.321 468.553,72.654C471.166,74.987 472.987,81.286 468.553,89.078C464.121,96.87 460.809,106.108 459.455,108.488C458.101,110.868 453.017,119.92 451.242,122.066C449.469,124.212 445.783,127.992 445.131,128.131C444.479,128.272 442.098,129.065 441.631,126.965C441.164,124.865 438.412,115.02 436.313,111.707C434.211,108.395 429.407,104.288 427.633,103.682C425.859,103.076 416.388,109.655 414.754,112.08C413.121,114.507 406.683,128.364 405.75,131.257C404.816,134.151 402.111,147.868 402.856,153.327C403.602,158.786 407.662,171.665 409.668,176.704C411.675,181.743 419.793,197.233 421.054,200.64C422.315,204.047 428.006,222.431 428.053,224.484C428.1,226.538 430.106,244.174 428.658,250.52C427.21,256.866 423.246,270.538 421.939,273.15C420.633,275.763 411.162,291.394 408.548,294.52C405.934,297.646 396.977,307.12 390.069,310.85C383.165,314.582 373.319,318.784 369.073,320.37C364.827,321.956 336.878,323.87 329.364,323.544C321.852,323.216 300.717,321.956 294.37,320.837C288.023,319.718 282.472,319.439 282.099,319.95C281.725,320.464 281.867,327.743 277.013,330.169C272.159,332.595 263.249,334.788 259.049,336.28C254.85,337.774 242.392,339.592 238.845,340.294C235.299,340.993 219.574,344.261 217.382,345.054C215.19,345.847 205.495,347.068 205.017,347.013C204.538,346.96 202.311,349.3 200.398,349.999C198.485,350.698 194.146,350.466 193.679,349.438C193.213,348.413 192.641,348.413 192.431,348.448C192.221,348.483 191.303,349.802 190.996,349.778C190.69,349.751 190.288,349.042 189.876,349.007C189.465,348.972 187.147,351.142 186.691,351.351C186.236,351.562 186.052,351.474 185.781,351.351C185.51,351.23 185.3,350.033 185.256,349.847C185.212,349.663 185.886,347.292 186.306,346.685C186.726,346.08 185.373,345.472 185.979,344.82C186.585,344.168 185.699,338.615 186.212,334.601C186.725,330.587 191.158,327.324 193.071,326.761C194.984,326.202 199.09,325.175 199.557,324.943C200.023,324.711 204.036,322.75 204.829,322.05C205.622,321.349 211.221,319.39 211.921,319.155C212.621,318.923 215.794,317.71 216.494,317.428C217.194,317.149 218.64,316.776 218.407,315.141C218.174,313.508 217.033,311.264 216.634,311.037C216.235,310.808 203.616,308.33 198.484,306.791C193.351,305.25 187.472,302.684 186.352,301.984C185.232,301.285 183.973,300.211 183.413,300.584C182.853,300.957 183.6,302.918 182.9,303.805C182.2,304.692 173.895,312.623 171.002,315.842C168.109,319.063 164.796,324.895 161.95,328.488C159.104,332.08 157.564,336.326 152.898,337.541C148.232,338.754 138.526,337.773 133.067,337.82C127.608,337.867 123.175,337.166 119.209,337.867C115.243,338.566 109.457,339.779 108.617,339.638C107.777,339.497 107.072,339.177 106.751,339.218C106.43,339.259 105.59,339.784 105.223,339.888C104.856,339.993 103.316,340.29 103.018,340.134C102.721,339.976 101.496,340.152 101.216,340.29C100.936,340.431 99.93,340.774 99.764,340.694C99.597,340.612 99.023,340.034 98.493,340.034C97.963,340.034 96.183,340.384 95.857,340.313C95.53,340.245 93.407,340.36 92.031,340.36C90.655,340.36 89.231,340.43 88.531,340.85C87.831,341.27 86.572,341.528 86.011,341.481C85.45,341.432 84.844,341.948 84.681,341.993C84.517,342.04 84.214,341.432 84.191,341.153C84.168,340.874 85.125,339.194 85.614,338.26C86.103,337.326 85.87,337.235 86.944,336.369C88.018,335.506 88.18,335.39 88.671,334.994C89.161,334.596 89.557,334.34 89.511,334.246C89.464,334.154 89.196,334.197 88.881,334.34C88.566,334.485 86.478,335.297 85.918,335.647C85.358,335.999 84.238,336.836 83.725,337.303C83.212,337.77 82.488,338.448 82.325,338.26C82.161,338.072 81.876,336.819 81.905,336.533C81.934,336.246 83.235,332.334 83.468,331.935C83.701,331.539 84.005,330.863 84.495,330.419C84.985,329.976 84.355,329.718 83.958,330.046C83.562,330.372 82.442,330.771 82.349,331.048C82.255,331.329 81.952,330.349 82.162,329.929C82.372,329.509 82.885,328.878 83.189,328.437C83.492,327.994 84.192,327.339 84.519,327.13C84.846,326.919 83.679,326.71 83.236,326.849C82.793,326.99 82.046,326.781 82.326,326.382C82.606,325.987 84.752,323.653 85.359,323.349C85.966,323.046 88.952,321.439 89.278,321.343C89.604,321.249 90.351,321.204 90.608,321.111C90.864,321.017 93.594,319.152 94.947,318.8C96.301,318.45 98.377,318.497 98.913,318.683C99.45,318.872 101.036,318.964 101.479,318.685C101.922,318.406 102.809,316.794 103.369,316.656C103.929,316.515 108.688,315.396 110.298,315.094C111.907,314.789 117.25,313.576 118.533,313.532C119.816,313.485 125.112,313.6 125.602,313.671C126.092,313.741 128.355,313.814 128.518,313.788C128.682,313.765 129.685,313.556 129.801,313.438C129.918,313.321 125.882,312.692 121.986,312.364C118.09,312.038 113.097,311.456 109.668,311.315C106.239,311.174 100.406,311.456 98.423,312.294C96.44,313.134 94.083,313.974 93.57,313.927C93.056,313.88 92.287,314.394 91.727,314.511C91.167,314.628 89.814,314.605 89.161,314.443C88.508,314.279 87.481,313.718 87.038,313.742C86.595,313.766 84.542,313.719 83.655,314.443C82.769,315.166 82.092,315.351 81.719,315.539C81.345,315.727 80.36,315.674 80.325,315.48C80.29,315.289 80.605,314.08 80.832,313.695C81.059,313.31 82.092,310.914 82.319,310.617C82.547,310.318 82.861,309.287 83.019,309.094C83.177,308.903 83.422,308.01 83.614,307.66C83.806,307.308 84.101,306.687 84.034,306.539C83.967,306.391 82.512,306.941 82.372,306.906C82.232,306.871 81.409,307.572 81.112,307.711C80.815,307.852 79.951,307.797 79.876,307.631C79.801,307.465 80.587,305.807 80.762,305.578C80.937,305.348 82.116,304.564 82.255,304.41C82.395,304.256 83.317,303.215 83.375,303.012C83.433,302.807 83.585,302.217 83.468,302.078C83.351,301.937 81.759,301.506 81.695,301.238C81.631,300.968 84.261,297.506 86.594,296.199C88.927,294.891 89.673,294.518 89.906,294.145C90.139,293.771 90.139,292.464 91.119,291.953C92.099,291.439 93.779,291.018 94.292,290.599C94.805,290.178 94.683,289.818 95.272,289.48C95.861,289.141 106.47,288.592 113.049,289.2C119.628,289.806 124.247,289.573 127.886,286.307C131.526,283.039 134.605,274.782 132.505,269.743C130.405,264.704 133.625,267.177 128.353,263.817C123.08,260.458 118.694,250.939 118.414,248.7C118.134,246.46 117.061,248.841 114.262,245.806C111.463,242.771 105.397,223.69 104.557,220.19C103.717,216.691 104.65,214.264 105.023,213.706C105.397,213.144 103.723,211.391 103.343,209.413C102.964,207.434 103.576,194.481 104.556,190.655C105.535,186.829 110.342,175.864 111.415,174.417C112.488,172.971 113.074,172.787 113.235,172.505C113.395,172.222 112.815,169.705 113.608,163.779C114.401,157.853 118.274,151.18 118.787,150.294C119.3,149.408 119.44,148.988 119.487,148.568C119.634,147.245 117.14,145.236 116.781,143.622C116.221,141.102 116.361,140.402 116.408,139.796C116.454,139.19 115.755,137.755 114.775,137.276C113.795,136.797 110.389,140.029 104.183,141.709C97.977,143.389 93.142,142.444 91.771,142.456C90.401,142.468 72.828,150.294 65.315,155.101C57.803,159.907 51.597,163.919 50.477,164.48C49.357,165.04 45.811,170.826 44.738,171.292C43.665,171.759 43.105,172.412 43.338,173.019C43.571,173.625 43.898,174.885 44.178,175.399C44.458,175.912 45.112,176.256 44.878,176.798C44.645,177.341 43.758,177.218 43.524,177.125C43.291,177.031 42.218,176.052 41.891,175.958C41.564,175.865 39.931,175.258 39.651,174.792C39.371,174.325 38.904,174.465 38.251,173.812C37.598,173.159 31.719,174.792 29.666,174.326C27.613,173.859 24.02,172.599 23.74,172.04C23.46,171.479 22.76,171.153 22.433,171.34C22.106,171.527 22.153,173.253 22.62,174.233C23.087,175.213 24.234,176.594 24.113,176.94C23.992,177.285 23.211,177.05 22.853,176.846C22.495,176.642 16.507,170.127 16.181,168.028C15.855,165.929 15.856,165.621 15.668,165.508C15.48,165.395 12.402,165.414 9.275,158.976C6.149,152.537 6.056,150.017 6.802,146.33C7.549,142.644 5.698,140.404 6.638,137.867C7.968,134.28 13.561,134.024 17.574,132.11C21.587,130.198 30.574,123.484 35.217,111.008C39.588,99.264 39.705,95.551 39.621,94.194C39.568,93.354 38.355,89.555 38.81,86.419C39.078,84.57 47.197,77.607 50.148,72.935C52.931,68.531 60.133,62.343 61.207,61.644C62.28,60.944 63.056,60.412 63.307,60.197C63.593,59.953 63.494,57.585 63.82,56.558C64.147,55.531 65.033,54.504 65.453,54.225C65.836,53.946 66.904,53.65 67.26,53.171L67.307,53.163ZM209.477,132.98C209.617,131.884 209.255,122.435 208.672,121.992C208.089,121.549 204.507,126.436 203.702,127.837C202.897,129.236 200.413,133.156 200.307,134.731C200.203,136.306 199.922,138.895 201.322,140.295C202.722,141.694 206.256,143.725 206.746,143.829C207.236,143.934 207.551,143.269 207.796,142.43C208.041,141.591 208.706,137.811 208.846,136.691C208.976,135.581 209.326,134.091 209.466,132.991L209.477,132.98ZM196.917,87.837C196.089,87.137 189.148,91.057 187.644,94.275C186.139,97.495 183.584,101.379 184.775,104.984C185.964,108.588 189.674,110.408 192.508,110.478C195.343,110.547 199.927,112.542 202.167,112.823C204.407,113.102 205.596,113.802 206.051,113.208C206.506,112.614 204.756,102.01 203.706,100.015C202.656,98.021 201.291,94.707 200.883,94.101C200.473,93.5 197.743,88.541 196.923,87.842L196.917,87.837Z"/>
        </clipPath>
        <g clip-path="url(#_clip2)">
            <g transform="matrix(100.468,0,0,100.468,-9.7669,73.0653)">
                <path d="M0.507,-0.319C0.507,-0.27 0.502,-0.226 0.492,-0.185C0.482,-0.145 0.468,-0.111 0.448,-0.082C0.428,-0.053 0.403,-0.031 0.374,-0.015C0.344,0.001 0.31,0.009 0.27,0.009C0.236,0.009 0.205,0.002 0.177,-0.01C0.149,-0.023 0.125,-0.043 0.105,-0.07C0.085,-0.097 0.07,-0.131 0.059,-0.172C0.048,-0.213 0.043,-0.262 0.043,-0.319C0.043,-0.368 0.048,-0.412 0.058,-0.453C0.068,-0.493 0.083,-0.528 0.102,-0.556C0.122,-0.585 0.147,-0.608 0.176,-0.623C0.206,-0.639 0.24,-0.647 0.28,-0.647C0.314,-0.647 0.345,-0.641 0.373,-0.628C0.401,-0.615 0.425,-0.595 0.445,-0.568C0.465,-0.541 0.48,-0.507 0.491,-0.466C0.501,-0.424 0.507,-0.375 0.507,-0.319ZM0.421,-0.316C0.421,-0.327 0.42,-0.338 0.42,-0.349C0.419,-0.36 0.418,-0.37 0.417,-0.381L0.147,-0.18C0.152,-0.163 0.158,-0.148 0.166,-0.133C0.173,-0.119 0.182,-0.107 0.193,-0.096C0.203,-0.086 0.215,-0.078 0.229,-0.073C0.242,-0.067 0.258,-0.064 0.275,-0.064C0.297,-0.064 0.317,-0.069 0.335,-0.08C0.353,-0.091 0.369,-0.107 0.381,-0.128C0.394,-0.149 0.404,-0.175 0.411,-0.207C0.417,-0.238 0.421,-0.275 0.421,-0.316ZM0.129,-0.322L0.129,-0.292C0.129,-0.281 0.13,-0.272 0.131,-0.262L0.401,-0.462C0.396,-0.479 0.39,-0.494 0.382,-0.507C0.375,-0.521 0.366,-0.533 0.355,-0.543C0.345,-0.553 0.333,-0.56 0.32,-0.566C0.306,-0.571 0.292,-0.574 0.275,-0.574C0.253,-0.574 0.233,-0.569 0.215,-0.558C0.197,-0.547 0.181,-0.531 0.168,-0.51C0.156,-0.489 0.146,-0.462 0.139,-0.431C0.132,-0.399 0.129,-0.363 0.129,-0.322Z" style="fill:rgb(224,224,224);fill-rule:nonzero;"/>
            </g>
            <g transform="matrix(100.468,0,0,100.468,45.4709,73.0653)">
                <path d="M0.487,0L0.086,0L0.086,-0.079L0.25,-0.079L0.25,-0.545L0.097,-0.462L0.066,-0.534L0.269,-0.641L0.344,-0.641L0.344,-0.079L0.487,-0.079L0.487,0Z" style="fill:rgb(224,224,224);fill-rule:nonzero;"/>
            </g>
            <g transform="matrix(100.468,0,0,100.468,100.709,73.0653)">
                <path d="M0.507,-0.319C0.507,-0.27 0.502,-0.226 0.492,-0.185C0.482,-0.145 0.468,-0.111 0.448,-0.082C0.428,-0.053 0.403,-0.031 0.374,-0.015C0.344,0.001 0.31,0.009 0.27,0.009C0.236,0.009 0.205,0.002 0.177,-0.01C0.149,-0.023 0.125,-0.043 0.105,-0.07C0.085,-0.097 0.07,-0.131 0.059,-0.172C0.048,-0.213 0.043,-0.262 0.043,-0.319C0.043,-0.368 0.048,-0.412 0.058,-0.453C0.068,-0.493 0.083,-0.528 0.102,-0.556C0.122,-0.585 0.147,-0.608 0.176,-0.623C0.206,-0.639 0.24,-0.647 0.28,-0.647C0.314,-0.647 0.345,-0.641 0.373,-0.628C0.401,-0.615 0.425,-0.595 0.445,-0.568C0.465,-0.541 0.48,-0.507 0.491,-0.466C0.501,-0.424 0.507,-0.375 0.507,-0.319ZM0.421,-0.316C0.421,-0.327 0.42,-0.338 0.42,-0.349C0.419,-0.36 0.418,-0.37 0.417,-0.381L0.147,-0.18C0.152,-0.163 0.158,-0.148 0.166,-0.133C0.173,-0.119 0.182,-0.107 0.193,-0.096C0.203,-0.086 0.215,-0.078 0.229,-0.073C0.242,-0.067 0.258,-0.064 0.275,-0.064C0.297,-0.064 0.317,-0.069 0.335,-0.08C0.353,-0.091 0.369,-0.107 0.381,-0.128C0.394,-0.149 0.404,-0.175 0.411,-0.207C0.417,-0.238 0.421,-0.275 0.421,-0.316ZM0.129,-0.322L0.129,-0.292C0.129,-0.281 0.13,-0.272 0.131,-0.262L0.401,-0.462C0.396,-0.479 0.39,-0.494 0.382,-0.507C0.375,-0.521 0.366,-0.533 0.355,-0.543C0.345,-0.553 0.333,-0.56 0.32,-0.566C0.306,-0.571 0.292,-0.574 0.275,-0.574C0.253,-0.574 0.233,-0.569 0.215,-0.558C0.197,-0.547 0.181,-0.531 0.168,-0.51C0.156,-0.489 0.146,-0.462 0.139,-0.431C0.132,-0.399 0.129,-0.363 0.129,-0.322Z" style="fill:rgb(224,224,224);fill-rule:nonzero;"/>
            </g>
            <g transform="matrix(100.468,0,0,100.468,155.946,73.0653)">
                <path d="M0.487,0L0.086,0L0.086,-0.079L0.25,-0.079L0.25,-0.545L0.097,-0.462L0.066,-0.534L0.269,-0.641L0.344,-0.641L0.344,-0.079L0.487,-0.079L0.487,0Z" style="fill:rgb(224,224,224);fill-rule:nonzero;"/>
            </g>
            <g transform="matrix(100.468,0,0,100.468,211.184,73.0653)">
                <path d="M0.487,0L0.086,0L0.086,-0.079L0.25,-0.079L0.25,-0.545L0.097,-0.462L0.066,-0.534L0.269,-0.641L0.344,-0.641L0.344,-0.079L0.487,-0.079L0.487,0Z" style="fill:rgb(224,224,224);fill-rule:nonzero;"/>
            </g>
            <g transform="matrix(100.468,0,0,100.468,266.422,73.0653)">
                <path d="M0.507,-0.319C0.507,-0.27 0.502,-0.226 0.492,-0.185C0.482,-0.145 0.468,-0.111 0.448,-0.082C0.428,-0.053 0.403,-0.031 0.374,-0.015C0.344,0.001 0.31,0.009 0.27,0.009C0.236,0.009 0.205,0.002 0.177,-0.01C0.149,-0.023 0.125,-0.043 0.105,-0.07C0.085,-0.097 0.07,-0.131 0.059,-0.172C0.048,-0.213 0.043,-0.262 0.043,-0.319C0.043,-0.368 0.048,-0.412 0.058,-0.453C0.068,-0.493 0.083,-0.528 0.102,-0.556C0.122,-0.585 0.147,-0.608 0.176,-0.623C0.206,-0.639 0.24,-0.647 0.28,-0.647C0.314,-0.647 0.345,-0.641 0.373,-0.628C0.401,-0.615 0.425,-0.595 0.445,-0.568C0.465,-0.541 0.48,-0.507 0.491,-0.466C0.501,-0.424 0.507,-0.375 0.507,-0.319ZM0.421,-0.316C0.421,-0.327 0.42,-0.338 0.42,-0.349C0.419,-0.36 0.418,-0.37 0.417,-0.381L0.147,-0.18C0.152,-0.163 0.158,-0.148 0.166,-0.133C0.173,-0.119 0.182,-0.107 0.193,-0.096C0.203,-0.086 0.215,-0.078 0.229,-0.073C0.242,-0.067 0.258,-0.064 0.275,-0.064C0.297,-0.064 0.317,-0.069 0.335,-0.08C0.353,-0.091 0.369,-0.107 0.381,-0.128C0.394,-0.149 0.404,-0.175 0.411,-0.207C0.417,-0.238 0.421,-0.275 0.421,-0.316ZM0.129,-0.322L0.129,-0.292C0.129,-0.281 0.13,-0.272 0.131,-0.262L0.401,-0.462C0.396,-0.479 0.39,-0.494 0.382,-0.507C0.375,-0.521 0.366,-0.533 0.355,-0.543C0.345,-0.553 0.333,-0.56 0.32,-0.566C0.306,-0.571 0.292,-0.574 0.275,-0.574C0.253,-0.574 0.233,-0.569 0.215,-0.558C0.197,-0.547 0.181,-0.531 0.168,-0.51C0.156,-0.489 0.146,-0.462 0.139,-0.431C0.132,-0.399 0.129,-0.363 0.129,-0.322Z" style="fill:rgb(224,224,224);fill-rule:nonzero;"/>
            </g>
            <g transform="matrix(100.468,0,0,100.468,321.66,73.0653)">
                <path d="M0.507,-0.319C0.507,-0.27 0.502,-0.226 0.492,-0.185C0.482,-0.145 0.468,-0.111 0.448,-0.082C0.428,-0.053 0.403,-0.031 0.374,-0.015C0.344,0.001 0.31,0.009 0.27,0.009C0.236,0.009 0.205,0.002 0.177,-0.01C0.149,-0.023 0.125,-0.043 0.105,-0.07C0.085,-0.097 0.07,-0.131 0.059,-0.172C0.048,-0.213 0.043,-0.262 0.043,-0.319C0.043,-0.368 0.048,-0.412 0.058,-0.453C0.068,-0.493 0.083,-0.528 0.102,-0.556C0.122,-0.585 0.147,-0.608 0.176,-0.623C0.206,-0.639 0.24,-0.647 0.28,-0.647C0.314,-0.647 0.345,-0.641 0.373,-0.628C0.401,-0.615 0.425,-0.595 0.445,-0.568C0.465,-0.541 0.48,-0.507 0.491,-0.466C0.501,-0.424 0.507,-0.375 0.507,-0.319ZM0.421,-0.316C0.421,-0.327 0.42,-0.338 0.42,-0.349C0.419,-0.36 0.418,-0.37 0.417,-0.381L0.147,-0.18C0.152,-0.163 0.158,-0.148 0.166,-0.133C0.173,-0.119 0.182,-0.107 0.193,-0.096C0.203,-0.086 0.215,-0.078 0.229,-0.073C0.242,-0.067 0.258,-0.064 0.275,-0.064C0.297,-0.064 0.317,-0.069 0.335,-0.08C0.353,-0.091 0.369,-0.107 0.381,-0.128C0.394,-0.149 0.404,-0.175 0.411,-0.207C0.417,-0.238 0.421,-0.275 0.421,-0.316ZM0.129,-0.322L0.129,-0.292C0.129,-0.281 0.13,-0.272 0.131,-0.262L0.401,-0.462C0.396,-0.479 0.39,-0.494 0.382,-0.507C0.375,-0.521 0.366,-0.533 0.355,-0.543C0.345,-0.553 0.333,-0.56 0.32,-0.566C0.306,-0.571 0.292,-0.574 0.275,-0.574C0.253,-0.574 0.233,-0.569 0.215,-0.558C0.197,-0.547 0.181,-0.531 0.168,-0.51C0.156,-0.489 0.146,-0.462 0.139,-0.431C0.132,-0.399 0.129,-0.363 0.129,-0.322Z" style="fill:rgb(224,224,224);fill-rule:nonzero;"/>
            </g>
            <g transform="matrix(100.468,0,0,100.468,376.897,73.0653)">
                <path d="M0.507,-0.319C0.507,-0.27 0.502,-0.226 0.492,-0.185C0.482,-0.145 0.468,-0.111 0.448,-0.082C0.428,-0.053 0.403,-0.031 0.374,-0.015C0.344,0.001 0.31,0.009 0.27,0.009C0.236,0.009 0.205,0.002 0.177,-0.01C0.149,-0.023 0.125,-0.043 0.105,-0.07C0.085,-0.097 0.07,-0.131 0.059,-0.172C0.048,-0.213 0.043,-0.262 0.043,-0.319C0.043,-0.368 0.048,-0.412 0.058,-0.453C0.068,-0.493 0.083,-0.528 0.102,-0.556C0.122,-0.585 0.147,-0.608 0.176,-0.623C0.206,-0.639 0.24,-0.647 0.28,-0.647C0.314,-0.647 0.345,-0.641 0.373,-0.628C0.401,-0.615 0.425,-0.595 0.445,-0.568C0.465,-0.541 0.48,-0.507 0.491,-0.466C0.501,-0.424 0.507,-0.375 0.507,-0.319ZM0.421,-0.316C0.421,-0.327 0.42,-0.338 0.42,-0.349C0.419,-0.36 0.418,-0.37 0.417,-0.381L0.147,-0.18C0.152,-0.163 0.158,-0.148 0.166,-0.133C0.173,-0.119 0.182,-0.107 0.193,-0.096C0.203,-0.086 0.215,-0.078 0.229,-0.073C0.242,-0.067 0.258,-0.064 0.275,-0.064C0.297,-0.064 0.317,-0.069 0.335,-0.08C0.353,-0.091 0.369,-0.107 0.381,-0.128C0.394,-0.149 0.404,-0.175 0.411,-0.207C0.417,-0.238 0.421,-0.275 0.421,-0.316ZM0.129,-0.322L0.129,-0.292C0.129,-0.281 0.13,-0.272 0.131,-0.262L0.401,-0.462C0.396,-0.479 0.39,-0.494 0.382,-0.507C0.375,-0.521 0.366,-0.533 0.355,-0.543C0.345,-0.553 0.333,-0.56 0.32,-0.566C0.306,-0.571 0.292,-0.574 0.275,-0.574C0.253,-0.574 0.233,-0.569 0.215,-0.558C0.197,-0.547 0.181,-0.531 0.168,-0.51C0.156,-0.489 0.146,-0.462 0.139,-0.431C0.132,-0.399 0.129,-0.363 0.129,-0.322Z" style="fill:rgb(224,224,224);fill-rule:nonzero;"/>
            </g>
            <g transform="matrix(100.468,0,0,100.468,432.135,73.0653)">
                <path d="M0.487,0L0.086,0L0.086,-0.079L0.25,-0.079L0.25,-0.545L0.097,-0.462L0.066,-0.534L0.269,-0.641L0.344,-0.641L0.344,-0.079L0.487,-0.079L0.487,0Z" style="fill:rgb(224,224,224);fill-rule:nonzero;"/>
            </g>
            <g transform="matrix(100.468,0,0,100.468,-9.7669,145.065)">
                <path d="M0.487,0L0.086,0L0.086,-0.079L0.25,-0.079L0.25,-0.545L0.097,-0.462L0.066,-0.534L0.269,-0.641L0.344,-0.641L0.344,-0.079L0.487,-0.079L0.487,0Z" style="fill:rgb(224,224,224);fill-rule:nonzero;"/>
            </g>
            <g transform="matrix(100.468,0,0,100.468,45.4709,145.065)">
                <path d="M0.487,0L0.086,0L0.086,-0.079L0.25,-0.079L0.25,-0.545L0.097,-0.462L0.066,-0.534L0.269,-0.641L0.344,-0.641L0.344,-0.079L0.487,-0.079L0.487,0Z" style="fill:rgb(224,224,224);fill-rule:nonzero;"/>
            </g>
            <g transform="matrix(100.468,0,0,100.468,100.709,145.065)">
                <path d="M0.487,0L0.086,0L0.086,-0.079L0.25,-0.079L0.25,-0.545L0.097,-0.462L0.066,-0.534L0.269,-0.641L0.344,-0.641L0.344,-0.079L0.487,-0.079L0.487,0Z" style="fill:rgb(224,224,224);fill-rule:nonzero;"/>
            </g>
            <g transform="matrix(100.468,0,0,100.468,155.946,145.065)">
                <path d="M0.507,-0.319C0.507,-0.27 0.502,-0.226 0.492,-0.185C0.482,-0.145 0.468,-0.111 0.448,-0.082C0.428,-0.053 0.403,-0.031 0.374,-0.015C0.344,0.001 0.31,0.009 0.27,0.009C0.236,0.009 0.205,0.002 0.177,-0.01C0.149,-0.023 0.125,-0.043 0.105,-0.07C0.085,-0.097 0.07,-0.131 0.059,-0.172C0.048,-0.213 0.043,-0.262 0.043,-0.319C0.043,-0.368 0.048,-0.412 0.058,-0.453C0.068,-0.493 0.083,-0.528 0.102,-0.556C0.122,-0.585 0.147,-0.608 0.176,-0.623C0.206,-0.639 0.24,-0.647 0.28,-0.647C0.314,-0.647 0.345,-0.641 0.373,-0.628C0.401,-0.615 0.425,-0.595 0.445,-0.568C0.465,-0.541 0.48,-0.507 0.491,-0.466C0.501,-0.424 0.507,-0.375 0.507,-0.319ZM0.421,-0.316C0.421,-0.327 0.42,-0.338 0.42,-0.349C0.419,-0.36 0.418,-0.37 0.417,-0.381L0.147,-0.18C0.152,-0.163 0.158,-0.148 0.166,-0.133C0.173,-0.119 0.182,-0.107 0.193,-0.096C0.203,-0.086 0.215,-0.078 0.229,-0.073C0.242,-0.067 0.258,-0.064 0.275,-0.064C0.297,-0.064 0.317,-0.069 0.335,-0.08C0.353,-0.091 0.369,-0.107 0.381,-0.128C0.394,-0.149 0.404,-0.175 0.411,-0.207C0.417,-0.238 0.421,-0.275 0.421,-0.316ZM0.129,-0.322L0.129,-0.292C0.129,-0.281 0.13,-0.272 0.131,-0.262L0.401,-0.462C0.396,-0.479 0.39,-0.494 0.382,-0.507C0.375,-0.521 0.366,-0.533 0.355,-0.543C0.345,-0.553 0.333,-0.56 0.32,-0.566C0.306,-0.571 0.292,-0.574 0.275,-0.574C0.253,-0.574 0.233,-0.569 0.215,-0.558C0.197,-0.547 0.181,-0.531 0.168,-0.51C0.156,-0.489 0.146,-0.462 0.139,-0.431C0.132,-0.399 0.129,-0.363 0.129,-0.322Z" style="fill:rgb(224,224,224);fill-rule:nonzero;"/>
            </g>
            <g transform="matrix(100.468,0,0,100.468,211.184,145.065)">
                <path d="M0.487,0L0.086,0L0.086,-0.079L0.25,-0.079L0.25,-0.545L0.097,-0.462L0.066,-0.534L0.269,-0.641L0.344,-0.641L0.344,-0.079L0.487,-0.079L0.487,0Z" style="fill:rgb(224,224,224);fill-rule:nonzero;"/>
            </g>
            <g transform="matrix(100.468,0,0,100.468,266.422,145.065)">
                <path d="M0.507,-0.319C0.507,-0.27 0.502,-0.226 0.492,-0.185C0.482,-0.145 0.468,-0.111 0.448,-0.082C0.428,-0.053 0.403,-0.031 0.374,-0.015C0.344,0.001 0.31,0.009 0.27,0.009C0.236,0.009 0.205,0.002 0.177,-0.01C0.149,-0.023 0.125,-0.043 0.105,-0.07C0.085,-0.097 0.07,-0.131 0.059,-0.172C0.048,-0.213 0.043,-0.262 0.043,-0.319C0.043,-0.368 0.048,-0.412 0.058,-0.453C0.068,-0.493 0.083,-0.528 0.102,-0.556C0.122,-0.585 0.147,-0.608 0.176,-0.623C0.206,-0.639 0.24,-0.647 0.28,-0.647C0.314,-0.647 0.345,-0.641 0.373,-0.628C0.401,-0.615 0.425,-0.595 0.445,-0.568C0.465,-0.541 0.48,-0.507 0.491,-0.466C0.501,-0.424 0.507,-0.375 0.507,-0.319ZM0.421,-0.316C0.421,-0.327 0.42,-0.338 0.42,-0.349C0.419,-0.36 0.418,-0.37 0.417,-0.381L0.147,-0.18C0.152,-0.163 0.158,-0.148 0.166,-0.133C0.173,-0.119 0.182,-0.107 0.193,-0.096C0.203,-0.086 0.215,-0.078 0.229,-0.073C0.242,-0.067 0.258,-0.064 0.275,-0.064C0.297,-0.064 0.317,-0.069 0.335,-0.08C0.353,-0.091 0.369,-0.107 0.381,-0.128C0.394,-0.149 0.404,-0.175 0.411,-0.207C0.417,-0.238 0.421,-0.275 0.421,-0.316ZM0.129,-0.322L0.129,-0.292C0.129,-0.281 0.13,-0.272 0.131,-0.262L0.401,-0.462C0.396,-0.479 0.39,-0.494 0.382,-0.507C0.375,-0.521 0.366,-0.533 0.355,-0.543C0.345,-0.553 0.333,-0.56 0.32,-0.566C0.306,-0.571 0.292,-0.574 0.275,-0.574C0.253,-0.574 0.233,-0.569 0.215,-0.558C0.197,-0.547 0.181,-0.531 0.168,-0.51C0.156,-0.489 0.146,-0.462 0.139,-0.431C0.132,-0.399 0.129,-0.363 0.129,-0.322Z" style="fill:rgb(224,224,224);fill-rule:nonzero;"/>
            </g>
            <g transform="matrix(100.468,0,0,100.468,321.66,145.065)">
                <path d="M0.487,0L0.086,0L0.086,-0.079L0.25,-0.079L0.25,-0.545L0.097,-0.462L0.066,-0.534L0.269,-0.641L0.344,-0.641L0.344,-0.079L0.487,-0.079L0.487,0Z" style="fill:rgb(224,224,224);fill-rule:nonzero;"/>
            </g>
            <g transform="matrix(100.468,0,0,100.468,376.897,145.065)">
                <path d="M0.487,0L0.086,0L0.086,-0.079L0.25,-0.079L0.25,-0.545L0.097,-0.462L0.066,-0.534L0.269,-0.641L0.344,-0.641L0.344,-0.079L0.487,-0.079L0.487,0Z" style="fill:rgb(224,224,224);fill-rule:nonzero;"/>
            </g>
            <g transform="matrix(100.468,0,0,100.468,432.135,145.065)">
                <path d="M0.507,-0.319C0.507,-0.27 0.502,-0.226 0.492,-0.185C0.482,-0.145 0.468,-0.111 0.448,-0.082C0.428,-0.053 0.403,-0.031 0.374,-0.015C0.344,0.001 0.31,0.009 0.27,0.009C0.236,0.009 0.205,0.002 0.177,-0.01C0.149,-0.023 0.125,-0.043 0.105,-0.07C0.085,-0.097 0.07,-0.131 0.059,-0.172C0.048,-0.213 0.043,-0.262 0.043,-0.319C0.043,-0.368 0.048,-0.412 0.058,-0.453C0.068,-0.493 0.083,-0.528 0.102,-0.556C0.122,-0.585 0.147,-0.608 0.176,-0.623C0.206,-0.639 0.24,-0.647 0.28,-0.647C0.314,-0.647 0.345,-0.641 0.373,-0.628C0.401,-0.615 0.425,-0.595 0.445,-0.568C0.465,-0.541 0.48,-0.507 0.491,-0.466C0.501,-0.424 0.507,-0.375 0.507,-0.319ZM0.421,-0.316C0.421,-0.327 0.42,-0.338 0.42,-0.349C0.419,-0.36 0.418,-0.37 0.417,-0.381L0.147,-0.18C0.152,-0.163 0.158,-0.148 0.166,-0.133C0.173,-0.119 0.182,-0.107 0.193,-0.096C0.203,-0.086 0.215,-0.078 0.229,-0.073C0.242,-0.067 0.258,-0.064 0.275,-0.064C0.297,-0.064 0.317,-0.069 0.335,-0.08C0.353,-0.091 0.369,-0.107 0.381,-0.128C0.394,-0.149 0.404,-0.175 0.411,-0.207C0.417,-0.238 0.421,-0.275 0.421,-0.316ZM0.129,-0.322L0.129,-0.292C0.129,-0.281 0.13,-0.272 0.131,-0.262L0.401,-0.462C0.396,-0.479 0.39,-0.494 0.382,-0.507C0.375,-0.521 0.366,-0.533 0.355,-0.543C0.345,-0.553 0.333,-0.56 0.32,-0.566C0.306,-0.571 0.292,-0.574 0.275,-0.574C0.253,-0.574 0.233,-0.569 0.215,-0.558C0.197,-0.547 0.181,-0.531 0.168,-0.51C0.156,-0.489 0.146,-0.462 0.139,-0.431C0.132,-0.399 0.129,-0.363 0.129,-0.322Z" style="fill:rgb(224,224,224);fill-rule:nonzero;"/>
            </g>
            <g transform="matrix(100.468,0,0,100.468,-9.7669,217.065)">
                <path d="M0.487,0L0.086,0L0.086,-0.079L0.25,-0.079L0.25,-0.545L0.097,-0.462L0.066,-0.534L0.269,-0.641L0.344,-0.641L0.344,-0.079L0.487,-0.079L0.487,0Z" style="fill:rgb(224,224,224);fill-rule:nonzero;"/>
            </g>
            <g transform="matrix(100.468,0,0,100.468,45.4709,217.065)">
                <path d="M0.507,-0.319C0.507,-0.27 0.502,-0.226 0.492,-0.185C0.482,-0.145 0.468,-0.111 0.448,-0.082C0.428,-0.053 0.403,-0.031 0.374,-0.015C0.344,0.001 0.31,0.009 0.27,0.009C0.236,0.009 0.205,0.002 0.177,-0.01C0.149,-0.023 0.125,-0.043 0.105,-0.07C0.085,-0.097 0.07,-0.131 0.059,-0.172C0.048,-0.213 0.043,-0.262 0.043,-0.319C0.043,-0.368 0.048,-0.412 0.058,-0.453C0.068,-0.493 0.083,-0.528 0.102,-0.556C0.122,-0.585 0.147,-0.608 0.176,-0.623C0.206,-0.639 0.24,-0.647 0.28,-0.647C0.314,-0.647 0.345,-0.641 0.373,-0.628C0.401,-0.615 0.425,-0.595 0.445,-0.568C0.465,-0.541 0.48,-0.507 0.491,-0.466C0.501,-0.424 0.507,-0.375 0.507,-0.319ZM0.421,-0.316C0.421,-0.327 0.42,-0.338 0.42,-0.349C0.419,-0.36 0.418,-0.37 0.417,-0.381L0.147,-0.18C0.152,-0.163 0.158,-0.148 0.166,-0.133C0.173,-0.119 0.182,-0.107 0.193,-0.096C0.203,-0.086 0.215,-0.078 0.229,-0.073C0.242,-0.067 0.258,-0.064 0.275,-0.064C0.297,-0.064 0.317,-0.069 0.335,-0.08C0.353,-0.091 0.369,-0.107 0.381,-0.128C0.394,-0.149 0.404,-0.175 0.411,-0.207C0.417,-0.238 0.421,-0.275 0.421,-0.316ZM0.129,-0.322L0.129,-0.292C0.129,-0.281 0.13,-0.272 0.131,-0.262L0.401,-0.462C0.396,-0.479 0.39,-0.494 0.382,-0.507C0.375,-0.521 0.366,-0.533 0.355,-0.543C0.345,-0.553 0.333,-0.56 0.32,-0.566C0.306,-0.571 0.292,-0.574 0.275,-0.574C0.253,-0.574 0.233,-0.569 0.215,-0.558C0.197,-0.547 0.181,-0.531 0.168,-0.51C0.156,-0.489 0.146,-0.462 0.139,-0.431C0.132,-0.399 0.129,-0.363 0.129,-0.322Z" style="fill:rgb(224,224,224);fill-rule:nonzero;"/>
            </g>
            <g transform="matrix(100.468,0,0,100.468,100.709,217.065)">
                <path d="M0.487,0L0.086,0L0.086,-0.079L0.25,-0.079L0.25,-0.545L0.097,-0.462L0.066,-0.534L0.269,-0.641L0.344,-0.641L0.344,-0.079L0.487,-0.079L0.487,0Z" style="fill:rgb(224,224,224);fill-rule:nonzero;"/>
            </g>
            <g transform="matrix(100.468,0,0,100.468,155.946,217.065)">
                <path d="M0.487,0L0.086,0L0.086,-0.079L0.25,-0.079L0.25,-0.545L0.097,-0.462L0.066,-0.534L0.269,-0.641L0.344,-0.641L0.344,-0.079L0.487,-0.079L0.487,0Z" style="fill:rgb(224,224,224);fill-rule:nonzero;"/>
            </g>
            <g transform="matrix(100.468,0,0,100.468,211.184,217.065)">
                <path d="M0.507,-0.319C0.507,-0.27 0.502,-0.226 0.492,-0.185C0.482,-0.145 0.468,-0.111 0.448,-0.082C0.428,-0.053 0.403,-0.031 0.374,-0.015C0.344,0.001 0.31,0.009 0.27,0.009C0.236,0.009 0.205,0.002 0.177,-0.01C0.149,-0.023 0.125,-0.043 0.105,-0.07C0.085,-0.097 0.07,-0.131 0.059,-0.172C0.048,-0.213 0.043,-0.262 0.043,-0.319C0.043,-0.368 0.048,-0.412 0.058,-0.453C0.068,-0.493 0.083,-0.528 0.102,-0.556C0.122,-0.585 0.147,-0.608 0.176,-0.623C0.206,-0.639 0.24,-0.647 0.28,-0.647C0.314,-0.647 0.345,-0.641 0.373,-0.628C0.401,-0.615 0.425,-0.595 0.445,-0.568C0.465,-0.541 0.48,-0.507 0.491,-0.466C0.501,-0.424 0.507,-0.375 0.507,-0.319ZM0.421,-0.316C0.421,-0.327 0.42,-0.338 0.42,-0.349C0.419,-0.36 0.418,-0.37 0.417,-0.381L0.147,-0.18C0.152,-0.163 0.158,-0.148 0.166,-0.133C0.173,-0.119 0.182,-0.107 0.193,-0.096C0.203,-0.086 0.215,-0.078 0.229,-0.073C0.242,-0.067 0.258,-0.064 0.275,-0.064C0.297,-0.064 0.317,-0.069 0.335,-0.08C0.353,-0.091 0.369,-0.107 0.381,-0.128C0.394,-0.149 0.404,-0.175 0.411,-0.207C0.417,-0.238 0.421,-0.275 0.421,-0.316ZM0.129,-0.322L0.129,-0.292C0.129,-0.281 0.13,-0.272 0.131,-0.262L0.401,-0.462C0.396,-0.479 0.39,-0.494 0.382,-0.507C0.375,-0.521 0.366,-0.533 0.355,-0.543C0.345,-0.553 0.333,-0.56 0.32,-0.566C0.306,-0.571 0.292,-0.574 0.275,-0.574C0.253,-0.574 0.233,-0.569 0.215,-0.558C0.197,-0.547 0.181,-0.531 0.168,-0.51C0.156,-0.489 0.146,-0.462 0.139,-0.431C0.132,-0.399 0.129,-0.363 0.129,-0.322Z" style="fill:rgb(224,224,224);fill-rule:nonzero;"/>
            </g>
            <g transform="matrix(100.468,0,0,100.468,266.422,217.065)">
                <path d="M0.487,0L0.086,0L0.086,-0.079L0.25,-0.079L0.25,-0.545L0.097,-0.462L0.066,-0.534L0.269,-0.641L0.344,-0.641L0.344,-0.079L0.487,-0.079L0.487,0Z" style="fill:rgb(224,224,224);fill-rule:nonzero;"/>
            </g>
            <g transform="matrix(100.468,0,0,100.468,321.66,217.065)">
                <path d="M0.487,0L0.086,0L0.086,-0.079L0.25,-0.079L0.25,-0.545L0.097,-0.462L0.066,-0.534L0.269,-0.641L0.344,-0.641L0.344,-0.079L0.487,-0.079L0.487,0Z" style="fill:rgb(224,224,224);fill-rule:nonzero;"/>
            </g>
            <g transform="matrix(100.468,0,0,100.468,376.897,217.065)">
                <path d="M0.487,0L0.086,0L0.086,-0.079L0.25,-0.079L0.25,-0.545L0.097,-0.462L0.066,-0.534L0.269,-0.641L0.344,-0.641L0.344,-0.079L0.487,-0.079L0.487,0Z" style="fill:rgb(224,224,224);fill-rule:nonzero;"/>
            </g>
            <g transform="matrix(100.468,0,0,100.468,432.135,217.065)">
                <path d="M0.507,-0.319C0.507,-0.27 0.502,-0.226 0.492,-0.185C0.482,-0.145 0.468,-0.111 0.448,-0.082C0.428,-0.053 0.403,-0.031 0.374,-0.015C0.344,0.001 0.31,0.009 0.27,0.009C0.236,0.009 0.205,0.002 0.177,-0.01C0.149,-0.023 0.125,-0.043 0.105,-0.07C0.085,-0.097 0.07,-0.131 0.059,-0.172C0.048,-0.213 0.043,-0.262 0.043,-0.319C0.043,-0.368 0.048,-0.412 0.058,-0.453C0.068,-0.493 0.083,-0.528 0.102,-0.556C0.122,-0.585 0.147,-0.608 0.176,-0.623C0.206,-0.639 0.24,-0.647 0.28,-0.647C0.314,-0.647 0.345,-0.641 0.373,-0.628C0.401,-0.615 0.425,-0.595 0.445,-0.568C0.465,-0.541 0.48,-0.507 0.491,-0.466C0.501,-0.424 0.507,-0.375 0.507,-0.319ZM0.421,-0.316C0.421,-0.327 0.42,-0.338 0.42,-0.349C0.419,-0.36 0.418,-0.37 0.417,-0.381L0.147,-0.18C0.152,-0.163 0.158,-0.148 0.166,-0.133C0.173,-0.119 0.182,-0.107 0.193,-0.096C0.203,-0.086 0.215,-0.078 0.229,-0.073C0.242,-0.067 0.258,-0.064 0.275,-0.064C0.297,-0.064 0.317,-0.069 0.335,-0.08C0.353,-0.091 0.369,-0.107 0.381,-0.128C0.394,-0.149 0.404,-0.175 0.411,-0.207C0.417,-0.238 0.421,-0.275 0.421,-0.316ZM0.129,-0.322L0.129,-0.292C0.129,-0.281 0.13,-0.272 0.131,-0.262L0.401,-0.462C0.396,-0.479 0.39,-0.494 0.382,-0.507C0.375,-0.521 0.366,-0.533 0.355,-0.543C0.345,-0.553 0.333,-0.56 0.32,-0.566C0.306,-0.571 0.292,-0.574 0.275,-0.574C0.253,-0.574 0.233,-0.569 0.215,-0.558C0.197,-0.547 0.181,-0.531 0.168,-0.51C0.156,-0.489 0.146,-0.462 0.139,-0.431C0.132,-0.399 0.129,-0.363 0.129,-0.322Z" style="fill:rgb(224,224,224);fill-rule:nonzero;"/>
            </g>
            <g transform="matrix(100.468,0,0,100.468,-9.7669,289.065)">
                <path d="M0.487,0L0.086,0L0.086,-0.079L0.25,-0.079L0.25,-0.545L0.097,-0.462L0.066,-0.534L0.269,-0.641L0.344,-0.641L0.344,-0.079L0.487,-0.079L0.487,0Z" style="fill:rgb(224,224,224);fill-rule:nonzero;"/>
            </g>
            <g transform="matrix(100.468,0,0,100.468,45.4709,289.065)">
                <path d="M0.507,-0.319C0.507,-0.27 0.502,-0.226 0.492,-0.185C0.482,-0.145 0.468,-0.111 0.448,-0.082C0.428,-0.053 0.403,-0.031 0.374,-0.015C0.344,0.001 0.31,0.009 0.27,0.009C0.236,0.009 0.205,0.002 0.177,-0.01C0.149,-0.023 0.125,-0.043 0.105,-0.07C0.085,-0.097 0.07,-0.131 0.059,-0.172C0.048,-0.213 0.043,-0.262 0.043,-0.319C0.043,-0.368 0.048,-0.412 0.058,-0.453C0.068,-0.493 0.083,-0.528 0.102,-0.556C0.122,-0.585 0.147,-0.608 0.176,-0.623C0.206,-0.639 0.24,-0.647 0.28,-0.647C0.314,-0.647 0.345,-0.641 0.373,-0.628C0.401,-0.615 0.425,-0.595 0.445,-0.568C0.465,-0.541 0.48,-0.507 0.491,-0.466C0.501,-0.424 0.507,-0.375 0.507,-0.319ZM0.421,-0.316C0.421,-0.327 0.42,-0.338 0.42,-0.349C0.419,-0.36 0.418,-0.37 0.417,-0.381L0.147,-0.18C0.152,-0.163 0.158,-0.148 0.166,-0.133C0.173,-0.119 0.182,-0.107 0.193,-0.096C0.203,-0.086 0.215,-0.078 0.229,-0.073C0.242,-0.067 0.258,-0.064 0.275,-0.064C0.297,-0.064 0.317,-0.069 0.335,-0.08C0.353,-0.091 0.369,-0.107 0.381,-0.128C0.394,-0.149 0.404,-0.175 0.411,-0.207C0.417,-0.238 0.421,-0.275 0.421,-0.316ZM0.129,-0.322L0.129,-0.292C0.129,-0.281 0.13,-0.272 0.131,-0.262L0.401,-0.462C0.396,-0.479 0.39,-0.494 0.382,-0.507C0.375,-0.521 0.366,-0.533 0.355,-0.543C0.345,-0.553 0.333,-0.56 0.32,-0.566C0.306,-0.571 0.292,-0.574 0.275,-0.574C0.253,-0.574 0.233,-0.569 0.215,-0.558C0.197,-0.547 0.181,-0.531 0.168,-0.51C0.156,-0.489 0.146,-0.462 0.139,-0.431C0.132,-0.399 0.129,-0.363 0.129,-0.322Z" style="fill:rgb(224,224,224);fill-rule:nonzero;"/>
            </g>
            <g transform="matrix(100.468,0,0,100.468,100.709,289.065)">
                <path d="M0.487,0L0.086,0L0.086,-0.079L0.25,-0.079L0.25,-0.545L0.097,-0.462L0.066,-0.534L0.269,-0.641L0.344,-0.641L0.344,-0.079L0.487,-0.079L0.487,0Z" style="fill:rgb(224,224,224);fill-rule:nonzero;"/>
            </g>
            <g transform="matrix(100.468,0,0,100.468,155.946,289.065)">
                <path d="M0.507,-0.319C0.507,-0.27 0.502,-0.226 0.492,-0.185C0.482,-0.145 0.468,-0.111 0.448,-0.082C0.428,-0.053 0.403,-0.031 0.374,-0.015C0.344,0.001 0.31,0.009 0.27,0.009C0.236,0.009 0.205,0.002 0.177,-0.01C0.149,-0.023 0.125,-0.043 0.105,-0.07C0.085,-0.097 0.07,-0.131 0.059,-0.172C0.048,-0.213 0.043,-0.262 0.043,-0.319C0.043,-0.368 0.048,-0.412 0.058,-0.453C0.068,-0.493 0.083,-0.528 0.102,-0.556C0.122,-0.585 0.147,-0.608 0.176,-0.623C0.206,-0.639 0.24,-0.647 0.28,-0.647C0.314,-0.647 0.345,-0.641 0.373,-0.628C0.401,-0.615 0.425,-0.595 0.445,-0.568C0.465,-0.541 0.48,-0.507 0.491,-0.466C0.501,-0.424 0.507,-0.375 0.507,-0.319ZM0.421,-0.316C0.421,-0.327 0.42,-0.338 0.42,-0.349C0.419,-0.36 0.418,-0.37 0.417,-0.381L0.147,-0.18C0.152,-0.163 0.158,-0.148 0.166,-0.133C0.173,-0.119 0.182,-0.107 0.193,-0.096C0.203,-0.086 0.215,-0.078 0.229,-0.073C0.242,-0.067 0.258,-0.064 0.275,-0.064C0.297,-0.064 0.317,-0.069 0.335,-0.08C0.353,-0.091 0.369,-0.107 0.381,-0.128C0.394,-0.149 0.404,-0.175 0.411,-0.207C0.417,-0.238 0.421,-0.275 0.421,-0.316ZM0.129,-0.322L0.129,-0.292C0.129,-0.281 0.13,-0.272 0.131,-0.262L0.401,-0.462C0.396,-0.479 0.39,-0.494 0.382,-0.507C0.375,-0.521 0.366,-0.533 0.355,-0.543C0.345,-0.553 0.333,-0.56 0.32,-0.566C0.306,-0.571 0.292,-0.574 0.275,-0.574C0.253,-0.574 0.233,-0.569 0.215,-0.558C0.197,-0.547 0.181,-0.531 0.168,-0.51C0.156,-0.489 0.146,-0.462 0.139,-0.431C0.132,-0.399 0.129,-0.363 0.129,-0.322Z" style="fill:rgb(224,224,224);fill-rule:nonzero;"/>
            </g>
            <g transform="matrix(100.468,0,0,100.468,211.184,289.065)">
                <path d="M0.487,0L0.086,0L0.086,-0.079L0.25,-0.079L0.25,-0.545L0.097,-0.462L0.066,-0.534L0.269,-0.641L0.344,-0.641L0.344,-0.079L0.487,-0.079L0.487,0Z" style="fill:rgb(224,224,224);fill-rule:nonzero;"/>
            </g>
            <g transform="matrix(100.468,0,0,100.468,266.422,289.065)">
                <path d="M0.507,-0.319C0.507,-0.27 0.502,-0.226 0.492,-0.185C0.482,-0.145 0.468,-0.111 0.448,-0.082C0.428,-0.053 0.403,-0.031 0.374,-0.015C0.344,0.001 0.31,0.009 0.27,0.009C0.236,0.009 0.205,0.002 0.177,-0.01C0.149,-0.023 0.125,-0.043 0.105,-0.07C0.085,-0.097 0.07,-0.131 0.059,-0.172C0.048,-0.213 0.043,-0.262 0.043,-0.319C0.043,-0.368 0.048,-0.412 0.058,-0.453C0.068,-0.493 0.083,-0.528 0.102,-0.556C0.122,-0.585 0.147,-0.608 0.176,-0.623C0.206,-0.639 0.24,-0.647 0.28,-0.647C0.314,-0.647 0.345,-0.641 0.373,-0.628C0.401,-0.615 0.425,-0.595 0.445,-0.568C0.465,-0.541 0.48,-0.507 0.491,-0.466C0.501,-0.424 0.507,-0.375 0.507,-0.319ZM0.421,-0.316C0.421,-0.327 0.42,-0.338 0.42,-0.349C0.419,-0.36 0.418,-0.37 0.417,-0.381L0.147,-0.18C0.152,-0.163 0.158,-0.148 0.166,-0.133C0.173,-0.119 0.182,-0.107 0.193,-0.096C0.203,-0.086 0.215,-0.078 0.229,-0.073C0.242,-0.067 0.258,-0.064 0.275,-0.064C0.297,-0.064 0.317,-0.069 0.335,-0.08C0.353,-0.091 0.369,-0.107 0.381,-0.128C0.394,-0.149 0.404,-0.175 0.411,-0.207C0.417,-0.238 0.421,-0.275 0.421,-0.316ZM0.129,-0.322L0.129,-0.292C0.129,-0.281 0.13,-0.272 0.131,-0.262L0.401,-0.462C0.396,-0.479 0.39,-0.494 0.382,-0.507C0.375,-0.521 0.366,-0.533 0.355,-0.543C0.345,-0.553 0.333,-0.56 0.32,-0.566C0.306,-0.571 0.292,-0.574 0.275,-0.574C0.253,-0.574 0.233,-0.569 0.215,-0.558C0.197,-0.547 0.181,-0.531 0.168,-0.51C0.156,-0.489 0.146,-0.462 0.139,-0.431C0.132,-0.399 0.129,-0.363 0.129,-0.322Z" style="fill:rgb(224,224,224);fill-rule:nonzero;"/>
            </g>
            <g transform="matrix(100.468,0,0,100.468,321.66,289.065)">
                <path d="M0.487,0L0.086,0L0.086,-0.079L0.25,-0.079L0.25,-0.545L0.097,-0.462L0.066,-0.534L0.269,-0.641L0.344,-0.641L0.344,-0.079L0.487,-0.079L0.487,0Z" style="fill:rgb(224,224,224);fill-rule:nonzero;"/>
            </g>
            <g transform="matrix(100.468,0,0,100.468,376.897,289.065)">
                <path d="M0.507,-0.319C0.507,-0.27 0.502,-0.226 0.492,-0.185C0.482,-0.145 0.468,-0.111 0.448,-0.082C0.428,-0.053 0.403,-0.031 0.374,-0.015C0.344,0.001 0.31,0.009 0.27,0.009C0.236,0.009 0.205,0.002 0.177,-0.01C0.149,-0.023 0.125,-0.043 0.105,-0.07C0.085,-0.097 0.07,-0.131 0.059,-0.172C0.048,-0.213 0.043,-0.262 0.043,-0.319C0.043,-0.368 0.048,-0.412 0.058,-0.453C0.068,-0.493 0.083,-0.528 0.102,-0.556C0.122,-0.585 0.147,-0.608 0.176,-0.623C0.206,-0.639 0.24,-0.647 0.28,-0.647C0.314,-0.647 0.345,-0.641 0.373,-0.628C0.401,-0.615 0.425,-0.595 0.445,-0.568C0.465,-0.541 0.48,-0.507 0.491,-0.466C0.501,-0.424 0.507,-0.375 0.507,-0.319ZM0.421,-0.316C0.421,-0.327 0.42,-0.338 0.42,-0.349C0.419,-0.36 0.418,-0.37 0.417,-0.381L0.147,-0.18C0.152,-0.163 0.158,-0.148 0.166,-0.133C0.173,-0.119 0.182,-0.107 0.193,-0.096C0.203,-0.086 0.215,-0.078 0.229,-0.073C0.242,-0.067 0.258,-0.064 0.275,-0.064C0.297,-0.064 0.317,-0.069 0.335,-0.08C0.353,-0.091 0.369,-0.107 0.381,-0.128C0.394,-0.149 0.404,-0.175 0.411,-0.207C0.417,-0.238 0.421,-0.275 0.421,-0.316ZM0.129,-0.322L0.129,-0.292C0.129,-0.281 0.13,-0.272 0.131,-0.262L0.401,-0.462C0.396,-0.479 0.39,-0.494 0.382,-0.507C0.375,-0.521 0.366,-0.533 0.355,-0.543C0.345,-0.553 0.333,-0.56 0.32,-0.566C0.306,-0.571 0.292,-0.574 0.275,-0.574C0.253,-0.574 0.233,-0.569 0.215,-0.558C0.197,-0.547 0.181,-0.531 0.168,-0.51C0.156,-0.489 0.146,-0.462 0.139,-0.431C0.132,-0.399 0.129,-0.363 0.129,-0.322Z" style="fill:rgb(224,224,224);fill-rule:nonzero;"/>
            </g>
            <g transform="matrix(100.468,0,0,100.468,432.135,289.065)">
                <path d="M0.487,0L0.086,0L0.086,-0.079L0.25,-0.079L0.25,-0.545L0.097,-0.462L0.066,-0.534L0.269,-0.641L0.344,-0.641L0.344,-0.079L0.487,-0.079L0.487,0Z" style="fill:rgb(224,224,224);fill-rule:nonzero;"/>
            </g>
            <g transform="matrix(100.468,0,0,100.468,-9.7669,361.065)">
                <path d="M0.487,0L0.086,0L0.086,-0.079L0.25,-0.079L0.25,-0.545L0.097,-0.462L0.066,-0.534L0.269,-0.641L0.344,-0.641L0.344,-0.079L0.487,-0.079L0.487,0Z" style="fill:rgb(224,224,224);fill-rule:nonzero;"/>
            </g>
            <g transform="matrix(100.468,0,0,100.468,45.4709,361.065)">
                <path d="M0.487,0L0.086,0L0.086,-0.079L0.25,-0.079L0.25,-0.545L0.097,-0.462L0.066,-0.534L0.269,-0.641L0.344,-0.641L0.344,-0.079L0.487,-0.079L0.487,0Z" style="fill:rgb(224,224,224);fill-rule:nonzero;"/>
            </g>
            <g transform="matrix(100.468,0,0,100.468,100.709,361.065)">
                <path d="M0.507,-0.319C0.507,-0.27 0.502,-0.226 0.492,-0.185C0.482,-0.145 0.468,-0.111 0.448,-0.082C0.428,-0.053 0.403,-0.031 0.374,-0.015C0.344,0.001 0.31,0.009 0.27,0.009C0.236,0.009 0.205,0.002 0.177,-0.01C0.149,-0.023 0.125,-0.043 0.105,-0.07C0.085,-0.097 0.07,-0.131 0.059,-0.172C0.048,-0.213 0.043,-0.262 0.043,-0.319C0.043,-0.368 0.048,-0.412 0.058,-0.453C0.068,-0.493 0.083,-0.528 0.102,-0.556C0.122,-0.585 0.147,-0.608 0.176,-0.623C0.206,-0.639 0.24,-0.647 0.28,-0.647C0.314,-0.647 0.345,-0.641 0.373,-0.628C0.401,-0.615 0.425,-0.595 0.445,-0.568C0.465,-0.541 0.48,-0.507 0.491,-0.466C0.501,-0.424 0.507,-0.375 0.507,-0.319ZM0.421,-0.316C0.421,-0.327 0.42,-0.338 0.42,-0.349C0.419,-0.36 0.418,-0.37 0.417,-0.381L0.147,-0.18C0.152,-0.163 0.158,-0.148 0.166,-0.133C0.173,-0.119 0.182,-0.107 0.193,-0.096C0.203,-0.086 0.215,-0.078 0.229,-0.073C0.242,-0.067 0.258,-0.064 0.275,-0.064C0.297,-0.064 0.317,-0.069 0.335,-0.08C0.353,-0.091 0.369,-0.107 0.381,-0.128C0.394,-0.149 0.404,-0.175 0.411,-0.207C0.417,-0.238 0.421,-0.275 0.421,-0.316ZM0.129,-0.322L0.129,-0.292C0.129,-0.281 0.13,-0.272 0.131,-0.262L0.401,-0.462C0.396,-0.479 0.39,-0.494 0.382,-0.507C0.375,-0.521 0.366,-0.533 0.355,-0.543C0.345,-0.553 0.333,-0.56 0.32,-0.566C0.306,-0.571 0.292,-0.574 0.275,-0.574C0.253,-0.574 0.233,-0.569 0.215,-0.558C0.197,-0.547 0.181,-0.531 0.168,-0.51C0.156,-0.489 0.146,-0.462 0.139,-0.431C0.132,-0.399 0.129,-0.363 0.129,-0.322Z" style="fill:rgb(224,224,224);fill-rule:nonzero;"/>
            </g>
            <g transform="matrix(100.468,0,0,100.468,155.946,361.065)">
                <path d="M0.487,0L0.086,0L0.086,-0.079L0.25,-0.079L0.25,-0.545L0.097,-0.462L0.066,-0.534L0.269,-0.641L0.344,-0.641L0.344,-0.079L0.487,-0.079L0.487,0Z" style="fill:rgb(224,224,224);fill-rule:nonzero;"/>
            </g>
            <g transform="matrix(100.468,0,0,100.468,211.184,361.065)">
                <path d="M0.507,-0.319C0.507,-0.27 0.502,-0.226 0.492,-0.185C0.482,-0.145 0.468,-0.111 0.448,-0.082C0.428,-0.053 0.403,-0.031 0.374,-0.015C0.344,0.001 0.31,0.009 0.27,0.009C0.236,0.009 0.205,0.002 0.177,-0.01C0.149,-0.023 0.125,-0.043 0.105,-0.07C0.085,-0.097 0.07,-0.131 0.059,-0.172C0.048,-0.213 0.043,-0.262 0.043,-0.319C0.043,-0.368 0.048,-0.412 0.058,-0.453C0.068,-0.493 0.083,-0.528 0.102,-0.556C0.122,-0.585 0.147,-0.608 0.176,-0.623C0.206,-0.639 0.24,-0.647 0.28,-0.647C0.314,-0.647 0.345,-0.641 0.373,-0.628C0.401,-0.615 0.425,-0.595 0.445,-0.568C0.465,-0.541 0.48,-0.507 0.491,-0.466C0.501,-0.424 0.507,-0.375 0.507,-0.319ZM0.421,-0.316C0.421,-0.327 0.42,-0.338 0.42,-0.349C0.419,-0.36 0.418,-0.37 0.417,-0.381L0.147,-0.18C0.152,-0.163 0.158,-0.148 0.166,-0.133C0.173,-0.119 0.182,-0.107 0.193,-0.096C0.203,-0.086 0.215,-0.078 0.229,-0.073C0.242,-0.067 0.258,-0.064 0.275,-0.064C0.297,-0.064 0.317,-0.069 0.335,-0.08C0.353,-0.091 0.369,-0.107 0.381,-0.128C0.394,-0.149 0.404,-0.175 0.411,-0.207C0.417,-0.238 0.421,-0.275 0.421,-0.316ZM0.129,-0.322L0.129,-0.292C0.129,-0.281 0.13,-0.272 0.131,-0.262L0.401,-0.462C0.396,-0.479 0.39,-0.494 0.382,-0.507C0.375,-0.521 0.366,-0.533 0.355,-0.543C0.345,-0.553 0.333,-0.56 0.32,-0.566C0.306,-0.571 0.292,-0.574 0.275,-0.574C0.253,-0.574 0.233,-0.569 0.215,-0.558C0.197,-0.547 0.181,-0.531 0.168,-0.51C0.156,-0.489 0.146,-0.462 0.139,-0.431C0.132,-0.399 0.129,-0.363 0.129,-0.322Z" style="fill:rgb(224,224,224);fill-rule:nonzero;"/>
            </g>
            <g transform="matrix(100.468,0,0,100.468,266.422,361.065)">
                <path d="M0.487,0L0.086,0L0.086,-0.079L0.25,-0.079L0.25,-0.545L0.097,-0.462L0.066,-0.534L0.269,-0.641L0.344,-0.641L0.344,-0.079L0.487,-0.079L0.487,0Z" style="fill:rgb(224,224,224);fill-rule:nonzero;"/>
            </g>
            <g transform="matrix(100.468,0,0,100.468,321.66,361.065)">
                <path d="M0.507,-0.319C0.507,-0.27 0.502,-0.226 0.492,-0.185C0.482,-0.145 0.468,-0.111 0.448,-0.082C0.428,-0.053 0.403,-0.031 0.374,-0.015C0.344,0.001 0.31,0.009 0.27,0.009C0.236,0.009 0.205,0.002 0.177,-0.01C0.149,-0.023 0.125,-0.043 0.105,-0.07C0.085,-0.097 0.07,-0.131 0.059,-0.172C0.048,-0.213 0.043,-0.262 0.043,-0.319C0.043,-0.368 0.048,-0.412 0.058,-0.453C0.068,-0.493 0.083,-0.528 0.102,-0.556C0.122,-0.585 0.147,-0.608 0.176,-0.623C0.206,-0.639 0.24,-0.647 0.28,-0.647C0.314,-0.647 0.345,-0.641 0.373,-0.628C0.401,-0.615 0.425,-0.595 0.445,-0.568C0.465,-0.541 0.48,-0.507 0.491,-0.466C0.501,-0.424 0.507,-0.375 0.507,-0.319ZM0.421,-0.316C0.421,-0.327 0.42,-0.338 0.42,-0.349C0.419,-0.36 0.418,-0.37 0.417,-0.381L0.147,-0.18C0.152,-0.163 0.158,-0.148 0.166,-0.133C0.173,-0.119 0.182,-0.107 0.193,-0.096C0.203,-0.086 0.215,-0.078 0.229,-0.073C0.242,-0.067 0.258,-0.064 0.275,-0.064C0.297,-0.064 0.317,-0.069 0.335,-0.08C0.353,-0.091 0.369,-0.107 0.381,-0.128C0.394,-0.149 0.404,-0.175 0.411,-0.207C0.417,-0.238 0.421,-0.275 0.421,-0.316ZM0.129,-0.322L0.129,-0.292C0.129,-0.281 0.13,-0.272 0.131,-0.262L0.401,-0.462C0.396,-0.479 0.39,-0.494 0.382,-0.507C0.375,-0.521 0.366,-0.533 0.355,-0.543C0.345,-0.553 0.333,-0.56 0.32,-0.566C0.306,-0.571 0.292,-0.574 0.275,-0.574C0.253,-0.574 0.233,-0.569 0.215,-0.558C0.197,-0.547 0.181,-0.531 0.168,-0.51C0.156,-0.489 0.146,-0.462 0.139,-0.431C0.132,-0.399 0.129,-0.363 0.129,-0.322Z" style="fill:rgb(224,224,224);fill-rule:nonzero;"/>
            </g>
            <g transform="matrix(100.468,0,0,100.468,376.897,361.065)">
                <path d="M0.507,-0.319C0.507,-0.27 0.502,-0.226 0.492,-0.185C0.482,-0.145 0.468,-0.111 0.448,-0.082C0.428,-0.053 0.403,-0.031 0.374,-0.015C0.344,0.001 0.31,0.009 0.27,0.009C0.236,0.009 0.205,0.002 0.177,-0.01C0.149,-0.023 0.125,-0.043 0.105,-0.07C0.085,-0.097 0.07,-0.131 0.059,-0.172C0.048,-0.213 0.043,-0.262 0.043,-0.319C0.043,-0.368 0.048,-0.412 0.058,-0.453C0.068,-0.493 0.083,-0.528 0.102,-0.556C0.122,-0.585 0.147,-0.608 0.176,-0.623C0.206,-0.639 0.24,-0.647 0.28,-0.647C0.314,-0.647 0.345,-0.641 0.373,-0.628C0.401,-0.615 0.425,-0.595 0.445,-0.568C0.465,-0.541 0.48,-0.507 0.491,-0.466C0.501,-0.424 0.507,-0.375 0.507,-0.319ZM0.421,-0.316C0.421,-0.327 0.42,-0.338 0.42,-0.349C0.419,-0.36 0.418,-0.37 0.417,-0.381L0.147,-0.18C0.152,-0.163 0.158,-0.148 0.166,-0.133C0.173,-0.119 0.182,-0.107 0.193,-0.096C0.203,-0.086 0.215,-0.078 0.229,-0.073C0.242,-0.067 0.258,-0.064 0.275,-0.064C0.297,-0.064 0.317,-0.069 0.335,-0.08C0.353,-0.091 0.369,-0.107 0.381,-0.128C0.394,-0.149 0.404,-0.175 0.411,-0.207C0.417,-0.238 0.421,-0.275 0.421,-0.316ZM0.129,-0.322L0.129,-0.292C0.129,-0.281 0.13,-0.272 0.131,-0.262L0.401,-0.462C0.396,-0.479 0.39,-0.494 0.382,-0.507C0.375,-0.521 0.366,-0.533 0.355,-0.543C0.345,-0.553 0.333,-0.56 0.32,-0.566C0.306,-0.571 0.292,-0.574 0.275,-0.574C0.253,-0.574 0.233,-0.569 0.215,-0.558C0.197,-0.547 0.181,-0.531 0.168,-0.51C0.156,-0.489 0.146,-0.462 0.139,-0.431C0.132,-0.399 0.129,-0.363 0.129,-0.322Z" style="fill:rgb(224,224,224);fill-rule:nonzero;"/>
            </g>
            <g transform="matrix(100.468,0,0,100.468,432.135,361.065)">
                <path d="M0.487,0L0.086,0L0.086,-0.079L0.25,-0.079L0.25,-0.545L0.097,-0.462L0.066,-0.534L0.269,-0.641L0.344,-0.641L0.344,-0.079L0.487,-0.079L0.487,0Z" style="fill:rgb(224,224,224);fill-rule:nonzero;"/>
            </g>
        </g>
    </g>
    <defs>
        <linearGradient id="_Linear1" x1="0" y1="0" x2="1" y2="0" gradientUnits="userSpaceOnUse" gradientTransform="matrix(1.03801e-14,169.52,-169.52,1.03801e-14,122.316,22.8821)"><stop offset="0" style="stop-color:rgb(192,0,192);stop-opacity:1"/><stop offset="1" style="stop-color:rgb(64,0,0);stop-opacity:1"/></linearGradient>
    </defs>
</svg>